<svg xmlns="http://www.w3.org/2000/svg" width="512" height="512" viewBox="0 0 108 108">
  <!-- Background -->
  <rect width="108" height="108" rx="24" fill="#121212"/>
  <!-- Headphone band -->
  <path d="M36,58 C36,44 44,36 54,36 C64,36 72,44 72,58" fill="none" stroke="#FFFFFF" stroke-width="3"/>
  <!-- Left earpiece -->
  <path d="M32,54 L32,66 C32,68.2 33.8,70 36,70 L38,70 C40.2,70 42,68.2 42,66 L42,54 C42,51.8 40.2,50 38,50 L36,50 C33.8,50 32,51.8 32,54 Z" fill="#1DB954"/>
  <!-- Right earpiece -->
  <path d="M66,54 L66,66 C66,68.2 67.8,70 70,70 L72,70 C74.2,70 76,68.2 76,66 L76,54 C76,51.8 74.2,50 72,50 L70,50 C67.8,50 66,51.8 66,54 Z" fill="#1DB954"/>
  <!-- Sound wave 1 (small) -->
  <path d="M49,55 C51,52 51,64 49,61" fill="none" stroke="#1DB954" stroke-width="2" stroke-linecap="round"/>
  <!-- Sound wave 2 (medium) -->
  <path d="M53,51 C57,47 57,69 53,65" fill="none" stroke="#1DB954" stroke-width="2" stroke-linecap="round"/>
  <!-- Sound wave 3 (large) -->
  <path d="M57,47 C63,42 63,74 57,69" fill="none" stroke="#1DB954" stroke-width="2" stroke-linecap="round"/>
</svg>
